<svg width="28" height="25" viewBox="0 0 28 25" fill="none" xmlns="http://www.w3.org/2000/svg">
<path d="M19.5708 4.06329L23.9556 8.46759C24.1403 8.65314 24.1403 8.95587 23.9556 9.14142L13.3389 19.8055L8.82778 20.3084C8.225 20.3768 7.71458 19.8641 7.78264 19.2586L8.28333 14.7274L18.9 4.06329C19.0847 3.87775 19.3861 3.87775 19.5708 4.06329ZM27.4458 2.94513L25.0736 0.562317C24.3347 -0.179871 23.134 -0.179871 22.3903 0.562317L20.6694 2.29083C20.4847 2.47638 20.4847 2.77911 20.6694 2.96466L25.0542 7.36896C25.2389 7.5545 25.5403 7.5545 25.725 7.36896L27.4458 5.64044C28.1847 4.89337 28.1847 3.68732 27.4458 2.94513V2.94513ZM18.6667 16.9051V21.8758H3.11111V6.25079H14.2819C14.4375 6.25079 14.5833 6.18732 14.6951 6.0799L16.6396 4.12677C17.009 3.75568 16.7465 3.12579 16.2264 3.12579H2.33333C1.04514 3.12579 0 4.1756 0 5.46954V22.657C0 23.951 1.04514 25.0008 2.33333 25.0008H19.4444C20.7326 25.0008 21.7778 23.951 21.7778 22.657V14.952C21.7778 14.4295 21.1507 14.1707 20.7813 14.5369L18.8368 16.4901C18.7299 16.6024 18.6667 16.7488 18.6667 16.9051Z" fill="black"/>
</svg>
